# 3ds Max Wavefront OBJ Exporter v0.97b - (c)2007 guruware
# File Created: 30.01.2018 16:06:23
# UVs by headus UVLayout v2.08.00 2012/05/02 06:40:44

#
# object Capsule001
#

v  -0.000000 42.730774 0.000000
v  3.741018 42.238258 0.000000
v  3.239816 42.238258 -1.870509
v  1.870509 42.238258 -3.239817
v  -0.000000 42.238258 -3.741019
v  -1.870510 42.238258 -3.239817
v  -3.239817 42.238258 -1.870509
v  -3.741019 42.238258 -0.000001
v  -3.239818 42.238258 1.870508
v  -1.870511 42.238258 3.239816
v  -0.000002 42.238258 3.741019
v  1.870507 42.238258 3.239818
v  3.239815 42.238258 1.870511
v  6.258846 40.794281 -3.613546
v  7.227092 40.794281 0.000000
v  3.613545 40.794281 -6.258846
v  -0.000001 40.794281 -7.227092
v  -3.613547 40.794281 -6.258846
v  -6.258846 40.794281 -3.613547
v  -7.227092 40.794281 -0.000001
v  -6.258846 40.794281 3.613545
v  -3.613549 40.794281 6.258844
v  -0.000004 40.794281 7.227092
v  3.613542 40.794281 6.258848
v  6.258843 40.794281 3.613550
v  8.851344 38.497238 -5.110326
v  10.220652 38.497238 0.000000
v  5.110325 38.497238 -8.851345
v  -0.000001 38.497238 -10.220652
v  -5.110326 38.497238 -8.851344
v  -8.851344 38.497238 -5.110326
v  -10.220652 38.497238 -0.000002
v  -8.851346 38.497238 5.110324
v  -5.110329 38.497238 8.851342
v  -0.000005 38.497238 10.220652
v  5.110321 38.497238 8.851348
v  8.851341 38.497238 5.110332
v  10.840639 35.503677 -6.258846
v  12.517693 35.503677 0.000000
v  6.258846 35.503677 -10.840640
v  -0.000001 35.503677 -12.517693
v  -6.258847 35.503677 -10.840639
v  -10.840639 35.503677 -6.258847
v  -12.517693 35.503677 -0.000002
v  -10.840640 35.503677 6.258843
v  -6.258850 35.503677 10.840637
v  -0.000006 35.503677 12.517693
v  6.258840 35.503677 10.840642
v  10.840635 35.503677 6.258853
v  12.091161 32.017601 -6.980835
v  13.961670 32.017601 0.000000
v  6.980834 32.017601 -12.091162
v  -0.000001 32.017601 -13.961670
v  -6.980836 32.017601 -12.091161
v  -12.091161 32.017601 -6.980836
v  -13.961670 32.017601 -0.000002
v  -12.091163 32.017601 6.980832
v  -6.980839 32.017601 12.091159
v  -0.000007 32.017601 13.961670
v  6.980828 32.017601 12.091165
v  12.091157 32.017601 6.980844
v  12.665272 28.266783 -7.312298
v  14.625098 28.266783 0.000000
v  7.312548 28.266783 -12.665706
v  -0.000001 28.266783 -14.624522
v  -7.312550 28.266783 -12.665705
v  -12.665275 28.266783 -7.312301
v  -14.625097 28.266783 -0.000002
v  -12.665255 28.266783 7.312285
v  -7.312553 28.266783 12.665704
v  -0.000007 28.266783 14.624555
v  7.312541 28.266783 12.665710
v  12.665231 28.266783 7.312285
v  13.073874 24.138243 -7.548198
v  15.098295 24.138243 0.000006
v  7.549148 24.138243 -13.075500
v  0.000001 24.138243 -15.096089
v  -7.549145 24.138243 -13.075499
v  -13.073878 24.138243 -7.548203
v  -15.098291 24.138243 0.000004
v  -13.073787 24.138243 7.548157
v  -7.549148 24.138243 13.075508
v  -0.000005 24.138243 15.096235
v  7.549140 24.138243 13.075516
v  13.073713 24.138243 7.548128
v  13.630694 19.679663 -7.869665
v  15.742325 19.679663 0.000017
v  7.871165 19.679663 -13.633230
v  0.000005 19.679663 -15.738834
v  -7.871154 19.679663 -13.633229
v  -13.630690 19.679663 -7.869671
v  -15.742312 19.679663 0.000015
v  -13.630532 19.679663 7.869607
v  -7.871157 19.679663 13.633263
v  -0.000001 19.679663 15.739094
v  7.871157 19.679663 13.633269
v  13.630430 19.679663 7.869556
v  14.183127 14.917881 -8.188596
v  16.380743 14.917881 0.000031
v  8.190376 14.917881 -14.186100
v  0.000010 14.917881 -16.376577
v  -8.190356 14.917881 -14.186099
v  -14.183104 14.917881 -8.188596
v  -16.380722 14.917881 0.000028
v  -14.182894 14.917881 8.188531
v  -8.190360 14.917881 14.186158
v  0.000004 14.917881 16.376932
v  8.190370 14.917881 14.186166
v  14.182788 14.917881 8.188473
v  14.541435 10.092543 -8.395452
v  16.811466 10.092543 0.000049
v  8.405352 10.092543 -14.558415
v  0.000015 10.092543 -16.790289
v  -8.404556 10.092543 -14.557097
v  -14.541387 10.092543 -8.395442
v  -16.811171 10.092543 0.000047
v  -14.541156 10.092543 8.395387
v  -8.405829 10.092543 14.559392
v  0.000008 10.092543 16.790691
v  8.405895 10.092543 14.559473
v  14.541079 10.092543 8.395342
v  17.893490 5.522970 0.000469
v  15.653870 5.325369 -5.590694
v  15.162776 5.325369 -7.345021
v  12.077393 5.522970 -12.365470
v  8.943278 5.522970 -15.489450
v  2.800231 5.297873 -16.364300
v  1.388864 5.297873 -16.765932
v  -4.246387 5.522970 -16.737518
v  -8.935808 5.522970 -15.477106
v  -12.584877 5.327150 -10.810017
v  -13.922483 5.327150 -9.464458
v  -16.807035 5.522970 -4.088447
v  -17.890802 5.522970 0.000465
v  -15.693448 5.318665 5.491112
v  -15.204587 5.318665 7.256406
v  -12.154910 5.522970 12.192612
v  -8.947555 5.522970 15.498379
v  -2.832824 5.308777 16.376339
v  -1.306600 5.308777 16.853601
v  4.252522 5.522970 16.762348
v  8.948270 5.522970 15.499046
v  12.703611 5.310167 10.727626
v  13.853579 5.310167 9.537800
v  16.758568 5.522970 4.254300
v  15.201785 5.037712 -7.363896
v  15.708609 5.037712 -5.576729
v  11.306304 -1.813269 -15.699926
v  12.007145 -1.813269 -14.999084
v  1.391775 5.065210 -16.800999
v  2.847462 5.065210 -16.392517
v  -7.741216 -1.813269 -17.694893
v  -6.786223 -1.813269 -17.950781
v  -13.958062 5.035933 -9.488630
v  -12.612377 5.035933 -10.844815
v  -19.269436 -1.813269 -1.867056
v  -19.009151 -1.813269 -2.838457
v  -15.243015 5.044420 7.274766
v  -15.733440 5.044420 5.507041
v  -11.200997 -1.813269 15.806783
v  -12.172720 -1.813269 14.835059
v  -1.309927 5.054306 16.896622
v  -2.869780 5.054306 16.410534
v  8.099972 -1.813269 17.601475
v  6.398856 -1.813269 18.057285
v  13.884887 5.052916 9.559366
v  12.720313 5.052916 10.771907
v  19.280130 -1.813269 1.833021
v  18.981709 -1.813269 2.946739
# 169 vertices

vn 0.000000 1.000000 -0.000000
vn 0.278868 0.960329 0.000000
vn 0.241507 0.960330 -0.139434
vn 0.139434 0.960329 -0.241507
vn -0.000000 0.960329 -0.278868
vn -0.139434 0.960330 -0.241507
vn -0.241507 0.960329 -0.139434
vn -0.278868 0.960329 -0.000000
vn -0.241507 0.960329 0.139434
vn -0.139434 0.960329 0.241507
vn -0.000000 0.960329 0.278868
vn 0.139434 0.960329 0.241507
vn 0.241507 0.960329 0.139434
vn 0.446800 0.856636 -0.257960
vn 0.515921 0.856636 0.000000
vn 0.257960 0.856636 -0.446800
vn -0.000000 0.856636 -0.515921
vn -0.257960 0.856636 -0.446800
vn -0.446800 0.856636 -0.257960
vn -0.515921 0.856636 -0.000000
vn -0.446800 0.856636 0.257960
vn -0.257960 0.856636 0.446800
vn -0.000000 0.856636 0.515921
vn 0.257960 0.856636 0.446800
vn 0.446800 0.856636 0.257960
vn 0.621461 0.696454 -0.358800
vn 0.717601 0.696454 0.000000
vn 0.358801 0.696454 -0.621461
vn -0.000000 0.696454 -0.717601
vn -0.358801 0.696454 -0.621461
vn -0.621461 0.696454 -0.358801
vn -0.717601 0.696454 -0.000000
vn -0.621461 0.696454 0.358800
vn -0.358801 0.696454 0.621461
vn -0.000000 0.696454 0.717601
vn 0.358800 0.696454 0.621461
vn 0.621461 0.696454 0.358801
vn 0.754503 0.490884 -0.435612
vn 0.871225 0.490884 0.000000
vn 0.435612 0.490884 -0.754503
vn -0.000000 0.490884 -0.871225
vn -0.435612 0.490884 -0.754503
vn -0.754503 0.490884 -0.435613
vn -0.871225 0.490884 -0.000000
vn -0.754503 0.490884 0.435612
vn -0.435613 0.490884 0.754503
vn -0.000000 0.490884 0.871225
vn 0.435612 0.490884 0.754503
vn 0.754503 0.490884 0.435613
vn 0.832560 0.275329 -0.480665
vn 0.961337 0.275375 -0.000012
vn 0.480657 0.275373 -0.832550
vn 0.000014 0.275321 -0.961352
vn -0.480679 0.275374 -0.832536
vn -0.832547 0.275329 -0.480685
vn -0.961337 0.275374 0.000013
vn -0.832561 0.275327 0.480664
vn -0.480658 0.275374 0.832549
vn -0.000014 0.275324 0.961351
vn 0.480680 0.275374 0.832536
vn 0.832548 0.275324 0.480688
vn 0.857122 0.143183 -0.494813
vn 0.989673 0.143342 -0.000039
vn 0.494793 0.143337 -0.857108
vn 0.000047 0.143150 -0.989701
vn -0.494869 0.143340 -0.857064
vn -0.857082 0.143183 -0.494883
vn -0.989673 0.143341 0.000044
vn -0.857125 0.143173 0.494812
vn -0.494798 0.143340 0.857105
vn -0.000045 0.143165 0.989699
vn 0.494875 0.143340 0.857060
vn 0.857082 0.143165 0.494888
vn 0.858869 0.128501 -0.495813
vn 0.991684 0.128695 -0.000040
vn 0.495781 0.128692 -0.858860
vn 0.000057 0.128457 -0.991715
vn -0.495871 0.128691 -0.858808
vn -0.858822 0.128500 -0.495896
vn -0.991684 0.128695 0.000056
vn -0.858873 0.128487 0.495811
vn -0.495793 0.128695 0.858852
vn -0.000053 0.128479 0.991712
vn 0.495888 0.128695 0.858797
vn 0.858821 0.128478 0.495903
vn 0.857793 0.137664 -0.495217
vn 0.990462 0.137784 -0.000011
vn 0.495180 0.137782 -0.857795
vn 0.000032 0.137632 -0.990483
vn -0.495231 0.137779 -0.857766
vn -0.857767 0.137662 -0.495263
vn -0.990462 0.137783 0.000038
vn -0.857796 0.137652 0.495215
vn -0.495201 0.137785 0.857783
vn -0.000030 0.137652 0.990481
vn 0.495257 0.137785 0.857750
vn 0.857767 0.137648 0.495267
vn 0.861027 0.108984 -0.496744
vn 0.993906 0.110233 -0.000316
vn 0.496647 0.110163 -0.860933
vn 0.000293 0.108944 -0.994048
vn -0.497187 0.110028 -0.860639
vn -0.860701 0.108988 -0.497309
vn -0.993908 0.110209 0.000346
vn -0.861037 0.108992 0.496725
vn -0.496651 0.110255 0.860919
vn -0.000343 0.109001 0.994042
vn 0.497250 0.110264 0.860572
vn 0.860697 0.108990 0.497314
vn 0.871861 0.085895 -0.482163
vn 0.989385 0.144027 -0.019343
vn 0.477930 0.143052 -0.866671
vn 0.018772 0.086782 -0.996050
vn -0.511640 0.141482 -0.847471
vn -0.853622 0.084080 -0.514062
vn -0.989413 0.143863 0.019107
vn -0.871364 0.085181 0.483186
vn -0.478508 0.144516 0.866109
vn -0.017797 0.093068 0.995501
vn 0.511551 0.144320 0.847046
vn 0.853509 0.084163 0.514237
vn 0.977156 0.194438 -0.085787
vn 0.942556 0.136400 -0.304930
vn 0.918709 0.099401 -0.382220
vn 0.760381 0.187474 -0.621831
vn 0.412211 0.190891 -0.890866
vn 0.225717 0.118794 -0.966923
vn 0.147488 0.094623 -0.984527
vn -0.145500 0.180259 -0.972798
vn -0.567975 0.184804 -0.802030
vn -0.734266 0.123813 -0.667475
vn -0.789330 0.096227 -0.606382
vn -0.919511 0.190024 -0.344080
vn -0.977264 0.193478 0.086723
vn -0.943097 0.132898 0.304805
vn -0.919029 0.102908 0.380520
vn -0.766914 0.179202 0.616221
vn -0.418741 0.193912 0.887161
vn -0.242228 0.109803 0.963986
vn -0.150098 0.106398 0.982929
vn 0.152052 0.188224 0.970284
vn 0.562258 0.195798 0.803448
vn 0.737868 0.137879 0.660712
vn 0.789156 0.097549 0.606397
vn 0.917872 0.186884 0.350123
vn 0.902563 0.149770 -0.403670
vn 0.931651 0.145840 -0.332801
vn 0.573541 0.206973 -0.792599
vn 0.727555 0.225464 -0.647943
vn 0.118525 0.150372 -0.981499
vn 0.184483 0.140675 -0.972716
vn -0.393521 0.206476 -0.895829
vn -0.195486 0.225455 -0.954440
vn -0.798481 0.146268 -0.583981
vn -0.752106 0.130373 -0.646018
vn -0.972815 0.207940 -0.101940
vn -0.924674 0.224998 -0.307171
vn -0.903569 0.153513 0.399997
vn -0.934351 0.139754 0.327808
vn -0.573748 0.214241 0.790515
vn -0.725652 0.234547 0.646852
vn -0.119217 0.167269 0.978677
vn -0.197555 0.145356 0.969455
vn 0.400640 0.208998 0.892081
vn 0.195244 0.225540 0.954469
vn 0.799417 0.146948 0.582528
vn 0.755160 0.144808 0.639346
vn 0.972809 0.208653 0.100534
vn 0.924201 0.224879 0.308677
# 169 vertex normals

# 200 texture coords
vt 0.495144 0.786154
vt 0.517429 0.818023
vt 0.501218 0.822980
vt 0.484768 0.821282
vt 0.470843 0.813461
vt 0.461606 0.801027
vt 0.458383 0.786147
vt 0.461612 0.771267
vt 0.470854 0.758837
vt 0.484783 0.751023
vt 0.501233 0.749331
vt 0.517442 0.754294
vt 0.213944 0.184410
vt 0.503159 0.858118
vt 0.534244 0.850492
vt 0.472480 0.853858
vt 0.446629 0.838519
vt 0.429410 0.814642
vt 0.423376 0.786140
vt 0.429422 0.757639
vt 0.446650 0.733770
vt 0.472508 0.718441
vt 0.503188 0.714194
vt 0.534270 0.721832
vt 0.243660 0.184409
vt 0.502430 0.892135
vt 0.546684 0.883744
vt 0.459254 0.884847
vt 0.422733 0.862250
vt 0.398256 0.827529
vt 0.389645 0.786133
vt 0.398273 0.744740
vt 0.422765 0.710029
vt 0.459295 0.687446
vt 0.502473 0.680177
vt 0.546724 0.688586
vt 0.271654 0.184408
vt 0.499610 0.924986
vt 0.554934 0.917116
vt 0.445543 0.914323
vt 0.399485 0.884670
vt 0.368441 0.839666
vt 0.357488 0.786126
vt 0.368462 0.732590
vt 0.399525 0.687599
vt 0.445596 0.657965
vt 0.499667 0.647324
vt 0.554988 0.655217
vt 0.298106 0.184407
vt 0.495658 0.957172
vt 0.560210 0.950365
vt 0.431729 0.942965
vt 0.376757 0.906372
vt 0.339506 0.851393
vt 0.326332 0.786120
vt 0.339532 0.720852
vt 0.376806 0.665889
vt 0.431793 0.629318
vt 0.495728 0.615137
vt 0.560277 0.621970
vt 0.324461 0.184406
vt 0.565484 0.983790
vt 0.492282 0.990175
vt 0.354581 0.184405
vt 0.418027 0.972748
vt 0.565565 0.588548
vt 0.353478 0.929118
vt 0.492366 0.582133
vt 0.309522 0.863733
vt 0.418103 0.599529
vt 0.293948 0.786113
vt 0.353536 0.643132
vt 0.309554 0.708500
vt 0.091802 0.479111
vt 0.133391 0.486335
vt 0.086709 0.516408
vt 0.176287 0.494094
vt 0.115623 0.641744
vt 0.218649 0.501737
vt 0.159139 0.643930
vt 0.073523 0.639932
vt 0.078165 0.587300
vt 0.258313 0.508896
vt 0.202120 0.646060
vt 0.158137 0.719355
vt 0.115154 0.720015
vt 0.242368 0.648054
vt 0.200968 0.718716
vt 0.161385 0.794717
vt 0.117914 0.798118
vt 0.072967 0.733387
vt 0.073183 0.683108
vt 0.241197 0.718107
vt 0.204288 0.791311
vt 0.170164 0.869663
vt 0.127558 0.875728
vt 0.244456 0.788087
vt 0.212534 0.863549
vt 0.075856 0.801727
vt 0.073521 0.746430
vt 0.252341 0.857681
vt 0.087339 0.892999
vt 0.080632 0.840809
vt 0.090045 0.909074
vt 0.192394 0.420388
vt 0.233970 0.430699
vt 0.212588 0.347690
vt 0.253613 0.360732
vt 0.273025 0.440389
vt 0.150675 0.410077
vt 0.238042 0.276662
vt 0.277955 0.292260
vt 0.292022 0.372948
vt 0.171049 0.334476
vt 0.106765 0.411671
vt 0.267518 0.207213
vt 0.306512 0.225428
vt 0.315434 0.306913
vt 0.197969 0.261023
vt 0.130721 0.321953
vt 0.103189 0.427596
vt 0.120111 0.361587
vt 0.302005 0.140093
vt 0.339543 0.160645
vt 0.343009 0.242510
vt 0.228026 0.188725
vt 0.154202 0.256768
vt 0.149475 0.270152
vt 0.374773 0.180081
vt 0.264216 0.119555
vt 0.189712 0.171014
vt 0.173070 0.210916
vt 0.221341 0.109829
vt 0.214576 0.122902
vt 0.248095 0.063101
vt 0.005788 0.654248
vt 0.075543 0.587087
vt 0.005764 0.663006
vt 0.070887 0.733479
vt 0.279473 0.649894
vt 0.071428 0.746839
vt 0.278329 0.717546
vt 0.183131 0.944214
vt 0.140466 0.952408
vt 0.010360 0.822910
vt 0.281489 0.785116
vt 0.225307 0.935217
vt 0.011460 0.831607
vt 0.289098 0.852302
vt 0.264681 0.926526
vt 0.099639 0.962057
vt 0.084801 0.893454
vt 0.301014 0.918883
vt 0.037453 0.991290
vt 0.087517 0.909761
vt 0.294874 0.515497
vt 0.022009 0.491091
vt 0.023175 0.482281
vt 0.100792 0.426992
vt 0.104377 0.411135
vt 0.309071 0.449330
vt 0.059258 0.327374
vt 0.062424 0.315653
vt 0.327429 0.384202
vt 0.147246 0.269583
vt 0.152061 0.255992
vt 0.302969 0.052144
vt 0.340167 0.074751
vt 0.350022 0.320436
vt 0.116841 0.170230
vt 0.122848 0.155827
vt 0.376572 0.097963
vt 0.267698 0.029186
vt 0.376657 0.258262
vt 0.212452 0.121968
vt 0.219305 0.108759
vt 0.410427 0.119905
vt 0.407320 0.197991
vt 0.198161 0.014591
vt 0.203314 0.005764
vt 0.441788 0.139787
vt 0.122907 0.563922
vt 0.079720 0.570458
vt 0.077125 0.570213
vt 0.165612 0.568773
vt 0.208170 0.573645
vt 0.285041 0.582452
vt 0.248145 0.578224
vt 0.632200 0.963496
vt 0.632273 0.608868
vt 0.621609 0.642406
vt 0.621550 0.929954
vt 0.607825 0.677003
vt 0.607781 0.895352
vt 0.587636 0.710645
vt 0.587605 0.861702
vt 0.561157 0.740780
vt 0.561138 0.831556
vt 0.530192 0.765665
vt 0.530184 0.806658
# 188 texture coords

g Capsule001
s 4
f -169/1/-169 -168/2/-168 -167/3/-167
f -169/1/-169 -167/3/-167 -166/4/-166
f -169/1/-169 -166/4/-166 -165/5/-165
f -169/1/-169 -165/5/-165 -164/6/-164
f -169/1/-169 -164/6/-164 -163/7/-163
f -169/1/-169 -163/7/-163 -162/8/-162
f -169/1/-169 -162/8/-162 -161/9/-161
f -169/1/-169 -161/9/-161 -160/10/-160
f -169/1/-169 -160/10/-160 -159/11/-159
f -169/1/-169 -159/11/-159 -158/12/-158
f -169/1/-169 -158/12/-158 -157/199/-157
f -169/1/-169 -157/200/-157 -168/2/-168
f -156/14/-156 -167/3/-167 -168/2/-168 -155/15/-155
f -154/16/-154 -166/4/-166 -167/3/-167 -156/14/-156
f -153/17/-153 -165/5/-165 -166/4/-166 -154/16/-154
f -152/18/-152 -164/6/-164 -165/5/-165 -153/17/-153
f -151/19/-151 -163/7/-163 -164/6/-164 -152/18/-152
f -150/20/-150 -162/8/-162 -163/7/-163 -151/19/-151
f -149/21/-149 -161/9/-161 -162/8/-162 -150/20/-150
f -148/22/-148 -160/10/-160 -161/9/-161 -149/21/-149
f -147/23/-147 -159/11/-159 -160/10/-160 -148/22/-148
f -146/24/-146 -158/12/-158 -159/11/-159 -147/23/-147
f -145/197/-145 -157/199/-157 -158/12/-158 -146/24/-146
f -155/15/-155 -168/2/-168 -157/200/-157 -145/198/-145
f -144/26/-144 -156/14/-156 -155/15/-155 -143/27/-143
f -142/28/-142 -154/16/-154 -156/14/-156 -144/26/-144
f -141/29/-141 -153/17/-153 -154/16/-154 -142/28/-142
f -140/30/-140 -152/18/-152 -153/17/-153 -141/29/-141
f -139/31/-139 -151/19/-151 -152/18/-152 -140/30/-140
f -138/32/-138 -150/20/-150 -151/19/-151 -139/31/-139
f -137/33/-137 -149/21/-149 -150/20/-150 -138/32/-138
f -136/34/-136 -148/22/-148 -149/21/-149 -137/33/-137
f -135/35/-135 -147/23/-147 -148/22/-148 -136/34/-136
f -134/36/-134 -146/24/-146 -147/23/-147 -135/35/-135
f -133/195/-133 -145/197/-145 -146/24/-146 -134/36/-134
f -143/27/-143 -155/15/-155 -145/198/-145 -133/196/-133
f -132/38/-132 -144/26/-144 -143/27/-143 -131/39/-131
f -130/40/-130 -142/28/-142 -144/26/-144 -132/38/-132
f -129/41/-129 -141/29/-141 -142/28/-142 -130/40/-130
f -128/42/-128 -140/30/-140 -141/29/-141 -129/41/-129
f -127/43/-127 -139/31/-139 -140/30/-140 -128/42/-128
f -126/44/-126 -138/32/-138 -139/31/-139 -127/43/-127
f -125/45/-125 -137/33/-137 -138/32/-138 -126/44/-126
f -124/46/-124 -136/34/-136 -137/33/-137 -125/45/-125
f -123/47/-123 -135/35/-135 -136/34/-136 -124/46/-124
f -122/48/-122 -134/36/-134 -135/35/-135 -123/47/-123
f -121/193/-121 -133/195/-133 -134/36/-134 -122/48/-122
f -131/39/-131 -143/27/-143 -133/196/-133 -121/194/-121
f -120/50/-120 -132/38/-132 -131/39/-131 -119/51/-119
f -118/52/-118 -130/40/-130 -132/38/-132 -120/50/-120
f -117/53/-117 -129/41/-129 -130/40/-130 -118/52/-118
f -116/54/-116 -128/42/-128 -129/41/-129 -117/53/-117
f -115/55/-115 -127/43/-127 -128/42/-128 -116/54/-116
f -114/56/-114 -126/44/-126 -127/43/-127 -115/55/-115
f -113/57/-113 -125/45/-125 -126/44/-126 -114/56/-114
f -112/58/-112 -124/46/-124 -125/45/-125 -113/57/-113
f -111/59/-111 -123/47/-123 -124/46/-124 -112/58/-112
f -110/60/-110 -122/48/-122 -123/47/-123 -111/59/-111
f -109/191/-109 -121/193/-121 -122/48/-122 -110/60/-110
f -119/51/-119 -131/39/-131 -121/194/-121 -109/192/-109
f -108/63/-108 -120/50/-120 -119/51/-119 -107/62/-107
f -106/65/-106 -118/52/-118 -120/50/-120 -108/63/-108
f -105/67/-105 -117/53/-117 -118/52/-118 -106/65/-106
f -104/69/-104 -116/54/-116 -117/53/-117 -105/67/-105
f -103/71/-103 -115/55/-115 -116/54/-116 -104/69/-104
f -102/73/-102 -114/56/-114 -115/55/-115 -103/71/-103
f -101/72/-101 -113/57/-113 -114/56/-114 -102/73/-102
f -100/70/-100 -112/58/-112 -113/57/-113 -101/72/-101
f -99/68/-99 -111/59/-111 -112/58/-112 -100/70/-100
f -98/66/-98 -110/60/-110 -111/59/-111 -99/68/-99
f -97/190/-97 -109/191/-109 -110/60/-110 -98/66/-98
f -107/62/-107 -119/51/-119 -109/192/-109 -97/189/-97
f -96/101/-96 -108/149/-108 -107/153/-107 -95/150/-95
f -94/97/-94 -106/146/-106 -108/149/-108 -96/101/-96
f -93/93/-93 -105/142/-105 -106/146/-106 -94/97/-94
f -92/87/-92 -104/140/-104 -105/142/-105 -93/93/-93
f -91/188/-91 -103/187/-103 -104/140/-104 -92/87/-92
f -90/83/-90 -102/156/-102 -103/187/-103 -91/188/-91
f -89/109/-89 -101/161/-101 -102/156/-102 -90/83/-90
f -88/113/-88 -100/164/-100 -101/161/-101 -89/109/-89
f -87/118/-87 -99/169/-99 -100/164/-100 -88/113/-88
f -86/125/-86 -98/174/-98 -99/169/-99 -87/118/-87
f -85/129/-85 -97/178/-97 -98/174/-98 -86/125/-86
f -95/177/-95 -107/181/-107 -97/178/-97 -85/129/-85
f -84/98/-84 -96/101/-96 -95/150/-95 -83/147/-83
f -82/94/-82 -94/97/-94 -96/101/-96 -84/98/-84
f -81/88/-81 -93/93/-93 -94/97/-94 -82/94/-82
f -80/84/-80 -92/87/-92 -93/93/-93 -81/88/-81
f -79/186/-79 -91/188/-91 -92/87/-92 -80/84/-80
f -78/79/-78 -90/83/-90 -91/188/-91 -79/186/-79
f -77/106/-77 -89/109/-89 -90/83/-90 -78/79/-78
f -76/108/-76 -88/113/-88 -89/109/-89 -77/106/-77
f -75/112/-75 -87/118/-87 -88/113/-88 -76/108/-76
f -74/117/-74 -86/125/-86 -87/118/-87 -75/112/-75
f -73/124/-73 -85/129/-85 -86/125/-86 -74/117/-74
f -83/172/-83 -95/177/-95 -85/129/-85 -73/124/-73
f -72/95/-72 -84/98/-84 -83/147/-83 -71/143/-71
f -70/89/-70 -82/94/-82 -84/98/-84 -72/95/-72
f -69/85/-69 -81/88/-81 -82/94/-82 -70/89/-70
f -68/80/-68 -80/84/-80 -81/88/-81 -69/85/-69
f -67/185/-67 -79/186/-79 -80/84/-80 -68/80/-68
f -66/77/-66 -78/79/-78 -79/186/-79 -67/185/-67
f -65/105/-65 -77/106/-77 -78/79/-78 -66/77/-66
f -64/107/-64 -76/108/-76 -77/106/-77 -65/105/-65
f -63/111/-63 -75/112/-75 -76/108/-76 -64/107/-64
f -62/116/-62 -74/117/-74 -75/112/-75 -63/111/-63
f -61/123/-61 -73/124/-73 -74/117/-74 -62/116/-62
f -71/168/-71 -83/172/-83 -73/124/-73 -61/123/-61
f -60/96/-60 -72/95/-72 -71/143/-71 -59/144/-59
f -58/90/-58 -70/89/-70 -72/95/-72 -60/96/-60
f -57/86/-57 -69/85/-69 -70/89/-70 -58/90/-58
f -56/78/-56 -68/80/-68 -69/85/-69 -57/86/-57
f -55/182/-55 -67/185/-67 -68/80/-68 -56/78/-56
f -54/75/-54 -66/77/-66 -67/185/-67 -55/182/-55
f -53/110/-53 -65/105/-65 -66/77/-66 -54/75/-54
f -52/114/-52 -64/107/-64 -65/105/-65 -53/110/-53
f -51/119/-51 -63/111/-63 -64/107/-64 -52/114/-52
f -50/126/-50 -62/116/-62 -63/111/-63 -51/119/-51
f -49/130/-49 -61/123/-61 -62/116/-62 -50/126/-50
f -59/167/-59 -71/168/-71 -61/123/-61 -49/130/-49
f -59/144/-59 -48/151/-48 -47/104/-47 -46/102/-46
f -59/144/-59 -46/102/-46 -60/96/-60
f -60/96/-60 -46/102/-46 -45/103/-45 -44/99/-44
f -60/96/-60 -44/99/-44 -58/90/-58
f -58/90/-58 -44/99/-44 -43/100/-43 -42/91/-42
f -58/90/-58 -42/91/-42 -57/86/-57
f -57/86/-57 -42/91/-42 -41/92/-41 -40/81/-40
f -57/86/-57 -40/81/-40 -56/78/-56
f -56/78/-56 -40/81/-40 -39/82/-39 -38/183/-38
f -56/78/-56 -38/183/-38 -55/182/-55
f -55/182/-55 -38/183/-38 -37/76/-37 -36/74/-36
f -55/182/-55 -36/74/-36 -54/75/-54
f -54/75/-54 -36/74/-36 -35/121/-35 -34/115/-34
f -54/75/-54 -34/115/-34 -53/110/-53
f -53/110/-53 -34/115/-34 -33/122/-33 -32/120/-32
f -53/110/-53 -32/120/-32 -52/114/-52
f -52/114/-52 -32/120/-32 -31/128/-31 -30/127/-30
f -52/114/-52 -30/127/-30 -51/119/-51
f -51/119/-51 -30/127/-30 -29/132/-29 -28/131/-28
f -51/119/-51 -28/131/-28 -50/126/-50
f -50/126/-50 -28/131/-28 -27/134/-27 -26/133/-26
f -50/126/-50 -26/133/-26 -49/130/-49
f -49/130/-49 -26/133/-26 -25/135/-25 -48/173/-48
f -49/130/-49 -48/173/-48 -59/167/-59
f -24/152/-24 -46/102/-46 -47/104/-47 -23/155/-23
f -22/145/-22 -44/99/-44 -45/103/-45 -21/148/-21
f -20/139/-20 -42/91/-42 -43/100/-43 -19/141/-19
f -18/136/-18 -40/81/-40 -41/92/-41 -17/138/-17
f -16/184/-16 -38/183/-38 -39/82/-39 -15/137/-15
f -14/158/-14 -36/74/-36 -37/76/-37 -13/157/-13
f -12/160/-12 -34/115/-34 -35/121/-35 -11/159/-11
f -10/163/-10 -32/120/-32 -33/122/-33 -9/162/-9
f -8/166/-8 -30/127/-30 -31/128/-31 -7/165/-7
f -6/171/-6 -28/131/-28 -29/132/-29 -5/170/-5
f -4/176/-4 -26/133/-26 -27/134/-27 -3/175/-3
f -2/180/-2 -48/173/-48 -25/135/-25 -1/179/-1
f -34/115/-34 -12/160/-12 -9/162/-9 -33/122/-33
f -32/120/-32 -10/163/-10 -7/165/-7 -31/128/-31
f -30/127/-30 -8/166/-8 -5/170/-5 -29/132/-29
f -28/131/-28 -6/171/-6 -3/175/-3 -27/134/-27
f -26/133/-26 -4/176/-4 -1/179/-1 -25/135/-25
f -48/151/-48 -2/154/-2 -23/155/-23 -47/104/-47
f -46/102/-46 -24/152/-24 -21/148/-21 -45/103/-45
f -44/99/-44 -22/145/-22 -19/141/-19 -43/100/-43
f -42/91/-42 -20/139/-20 -17/138/-17 -41/92/-41
f -40/81/-40 -18/136/-18 -15/137/-15 -39/82/-39
f -38/183/-38 -16/184/-16 -13/157/-13 -37/76/-37
f -36/74/-36 -14/158/-14 -11/159/-11 -35/121/-35
# 144 polygons - 24 triangles

